<svg xmlns="http://www.w3.org/2000/svg" viewBox="0 0 140 28" role="img" aria-label="Airtel Money">
  <g fill="#c70204">
    <path d="M20.9,4.81a8.18,8.18,0,0,0-5.13-1.52c-3,0-6.23,1.15-9.68,3.42L6,6.78H6L5.65,7l-.27.18a21.89,21.89,0,0,0-2,1.55c-1.46,1.42-3.12,3.77-3,5.78a2.73,2.73,0,0,0,1,2.06,3.5,3.5,0,0,0,2.2.69,10.52,10.52,0,0,0,5-1.78l.25-.16.69-.46.23-.16a26.66,26.66,0,0,1,6-3.33,4.54,4.54,0,0,1,1.52-.3,2.75,2.75,0,0,1,.65.08,2,2,0,0,1,1.46,1.13,5.15,5.15,0,0,1-.31,4.17,18.1,18.1,0,0,1-4.82,6,19.25,19.25,0,0,1-3.16,2.26l-.09,0a10.44,10.44,0,0,1-1.46.72l-.07,0a3.64,3.64,0,0,1-.42.15c-2.2.6-.86-1.35-.86-1.35A16.81,16.81,0,0,1,9.8,22.73c.3-.27.61-.56.92-.88l.07-.07a2.26,2.26,0,0,0,.88-1.67,2,2,0,0,0-2-1.66H9.57a4.07,4.07,0,0,0-2.36,1,7.82,7.82,0,0,0-1.59,1.79C5,22.17,3.8,24.55,5,26.44a2.61,2.61,0,0,0,2.38,1.15A8.29,8.29,0,0,0,10.11,27,20.14,20.14,0,0,0,14,25l.32-.2A29.12,29.12,0,0,0,18.07,22a16.88,16.88,0,0,0,5.39-7.7,9.71,9.71,0,0,0,.26-5.62A7.23,7.23,0,0,0,20.9,4.81Z" transform="translate(-0.35)"/>
    <path d="M108.9,24.49c-2.06-.16-2.48-1.06-2.48-2.57V2.42l-5,.84V21.6c0,4.34,2.36,6.21,6.31,6.21a12.19,12.19,0,0,0,1.9-.2V24.5A6.76,6.76,0,0,1,108.9,24.49Z" transform="translate(-0.35)"/>
    <path d="M90.72,11.37c2.2,0,2.52,2.39,2.52,3.87H87.89C88,13.33,88.76,11.37,90.72,11.37Zm1.07,13.11a3.72,3.72,0,0,1-2.87-1.09c-.89-1-1.29-2.95-1.18-5.05H98.41v-.49c-.09-7-2.47-10.17-7.69-10.17-5.82,0-8.09,5.36-8.13,10.39A10.62,10.62,0,0,0,86,26.28,8.25,8.25,0,0,0,91.28,28a12,12,0,0,0,3.52-.52,14.21,14.21,0,0,0,3.72-1.8l-1.4-2.88A9.56,9.56,0,0,1,91.79,24.48Z" transform="translate(-0.35)"/>
    <polygon points="50.06 27.59 55.01 27.59 55.01 7.88 50.06 8.69 50.06 27.59"/>
    <path d="M77.58,2.44l-5.07.82V21.69c0,4.13,2.41,6.08,6.45,6.08a11.19,11.19,0,0,0,1.89-.18V24.52c-.06,0-.44,0-.72,0-2.13-.07-2.55-1.25-2.55-2.6V11.53h3.27V7.89H77.58Z" transform="translate(-0.35)"/>
    <path d="M41.67,23.87a4.82,4.82,0,0,1-2.57.65c-2,0-2.89-1.53-2.85-3.32a3.11,3.11,0,0,1,3.44-3.13h2Zm-2-16.34A14.78,14.78,0,0,0,33,9.28l-.55.29,1.32,3,.75-.36a10.75,10.75,0,0,1,4.68-1.09c1.79.07,2.53.9,2.53,2.61v1H38.74c-4.72,0-7.65,2.5-7.73,6.38A7,7,0,0,0,38.37,28a11.56,11.56,0,0,0,8.33-3.09V14.34C46.7,9.21,43,7.53,39.63,7.53Z" transform="translate(-0.35)"/>
    <path d="M52.94,0a3.17,3.17,0,0,0-3.19,3.15,3.15,3.15,0,1,0,6.29,0A3,3,0,0,0,55.18,1,3.08,3.08,0,0,0,52.94,0Z" transform="translate(-0.35)" fill="#fff"/>
    <path d="M59.32,11.41v16.2h5V12.36a5.74,5.74,0,0,1,3.39-1.26,6.35,6.35,0,0,1,2,.21l1.39-3.13a8.5,8.5,0,0,0-3.33-.6A11.52,11.52,0,0,0,59.32,11.41Z" transform="translate(-0.35)"/>
    <text x="118" y="20" font-family="Arial,Helvetica,sans-serif" font-size="11" font-weight="700" letter-spacing="0.02em">money</text>
  </g>
</svg>
